<?xml version="1.0" encoding="UTF-8"?>
<svg id="_2" data-name="2" xmlns="http://www.w3.org/2000/svg" version="1.1" viewBox="0 0 141.7 141.7">
  <defs>
    <style>
      .cls-1 {
        fill: #000;
        stroke-width: 0px;
      }
    </style>
  </defs>
  <path class="cls-1" d="M70.9,2.8C33.3,2.8,2.8,33.3,2.8,70.9s30.5,68,68,68,68-30.5,68-68S108.4,2.8,70.9,2.8ZM70.9,8.1c8.8,0,17.1,1.8,24.7,5h-49.4c7.6-3.2,15.9-5,24.7-5ZM15.3,41.3h111.3c4.8,8.9,7.5,19.1,7.5,30s-2.6,20.4-7.1,29.2H14.9c-4.5-8.7-7.1-18.6-7.1-29.2s2.7-21.1,7.5-30ZM44.4,128.6h53c-8.1,3.7-17,5.8-26.5,5.8s-18.4-2.1-26.5-5.8Z"/>
  <ellipse class="cls-1" cx="38" cy="78.6" rx="3.6" ry="3.9"/>
  <path class="cls-1" d="M54.5,75.6c-.2,0-.4,0-.6,0v1.3c1.4.7,3.1,1.7,4.6,2.4v-2.9c-.9-.4-2.2-.9-4-.9Z"/>
  <path class="cls-1" d="M30.4,61.1c.5.3,1,.6,1.3.9.2.1.4.2.5.3,0,0,0,0,0,0v1.2h12.4v-1.4c.4-.2.8-.5,1.4-.9.8-.6,1.8-1.3,2.6-2.2.4-.4.8-.9,1-1.5.3-.5.4-1.1.4-1.8s0-.6-.1-.9c-.3-1-.9-1.8-1.7-2.3-.8-.5-1.7-.7-2.6-.7-.6,0-1.3.1-1.9.4-.2-.2-.4-.4-.6-.6-.4-.3-.8-.5-1.3-.6-.5-.1-.9-.2-1.3-.2-.6,0-1.1.1-1.5.3,0,0-.1,0-.2.1v-2.5h1.9v-1.3h-1.9v-2.1h-1.3v2.1h-1.9v1.3h1.9v2.5c0,0-.1,0-.2-.1-.4-.2-.9-.3-1.5-.3-.4,0-.8,0-1.3.2-.5.1-1,.3-1.3.6-.2.2-.4.4-.6.6-.6-.3-1.3-.4-1.9-.4-.9,0-1.8.2-2.6.7-.8.5-1.4,1.3-1.7,2.3,0,.3-.1.6-.1.9,0,1,.4,1.9.9,2.6.8,1.1,1.9,2,2.9,2.6ZM45.8,53.8c.5,0,1.1.2,1.5.4.4.3.7.6.8,1.1,0,.2,0,.3,0,.4,0,.5-.2.9-.6,1.5,0,0,0,0-.1.1-.5-.9-1.6-1.6-2.7-1.8,0-.2,0-.4,0-.5,0-.3,0-.7-.1-1,.3-.1.7-.2,1.1-.2ZM39.4,53.5c0,0,.2-.2.3-.3.2-.2.5-.3,1.1-.3.2,0,.5,0,.8.1.3,0,.5.2.7.3.3.2.4.4.6.7.1.3.2.7.2,1.1,0,0,0,.1,0,.2-1.1-.4-2.5-.7-3.5-.8v-1ZM34.2,53.7c.1-.2.2-.3.4-.4.2-.1.4-.2.7-.3.3,0,.6-.1.8-.1s.5,0,.7.1c.3.1.5.3.6.4,0,0,0,0,0,0v1h0c-1.1.1-2.5.5-3.5.9,0-.1,0-.2,0-.3,0-.5.1-1,.3-1.3ZM28.6,55.4c.1-.5.4-.9.8-1.1.4-.3,1-.4,1.5-.4s.8,0,1.1.2c0,.3-.1.7-.1,1,0,.2,0,.4,0,.6-1.1.3-2.2,1-2.5,2-.3-.3-.5-.6-.6-.9-.2-.3-.2-.6-.2-.9s0-.3,0-.4Z"/>
  <path class="cls-1" d="M15.5,77c.5.3,2.8-3.3,10-1.5v9.7c0,.8.1,1.8.5,2.8.5,1.5,1.6,3,3.6,4.2,1.9,1.1,4.6,1.9,8.4,1.9s4.5-.3,6.2-.9c2.5-.8,4.1-2.2,5-3.7.9-1.5,1.2-3,1.2-4.2v-9.6c7.4-1.9,9.9,1.8,10.3,1.4.5-.4,1.1-1.6,1-2.9-4.5-3-8.6-2.4-11.3-1.8v-7.1h-24.9v7.1c-2.7-.6-6.6-1-11,1.9-.1,1.3.5,2.5,1,2.9ZM27.5,78.7h5.5s0,0,0,0c0-3,2.2-5.5,5-5.5s.2,0,.4,0v-6.1h10.2v11.1h-5.6c0,.1,0,.3,0,.4,0,3-2.2,5.5-5,5.5s-.2,0-.4,0v7.9c-2.2,0-3.9-.3-5.2-.8-2.1-.7-3.3-1.8-4-2.9-.7-1.1-.9-2.3-.9-3.2v-6.5Z"/>
  <path class="cls-1" d="M53.9,81.1v7.8h4.6v-5.3c-1.2-.6-3.3-1.7-4.6-2.4Z"/>
  <rect class="cls-1" x="53.2" y="89.7" width="6.1" height="4.1"/>
  <path class="cls-1" d="M61.3,81.4c-.8-.4-8.4-4.4-8.4-4.4,0,0-.5,2.4.1,2.9.6.5,6.5,3.5,6.5,3.5,0,0,.5,1.8,1,1.9.5.1.5-1.2.7-1.6.2-.4.8-2.1,0-2.4Z"/>
  <path class="cls-1" d="M17.7,83.5v5.3h4.6v-7.8c-1.3.7-3.4,1.8-4.6,2.4Z"/>
  <rect class="cls-1" x="17" y="89.7" width="6.1" height="4.1"/>
  <rect class="cls-1" x="53.2" y="65.1" width="6.1" height="2.2"/>
  <path class="cls-1" d="M54.4,71.2c1.4,0,2.8.2,4.2.7v-3.4h-4.6v2.8c.1,0,.3,0,.4,0Z"/>
  <path class="cls-1" d="M53.3,62.9c.2.3.5.5.7.7.1.1.3.2.4.3v.4h3.5v-.4s0,0,0,0c0,0,0,0,.1,0,.1,0,.2-.2.4-.3.3-.2.6-.5.8-.8.1-.2.3-.5.3-.8s0-.2,0-.3c0-.3-.2-.6-.5-.7-.2-.2-.5-.2-.7-.2s-.4,0-.5.1c0,0-.1-.1-.2-.2-.1,0-.2-.2-.4-.2-.1,0-.2,0-.4,0s-.3,0-.4,0c0,0,0,0,0,0v-.8h.5v-.4h-.5v-.6h-.4v.6h-.5v.4h.5v.8s0,0,0,0c-.1,0-.3,0-.4,0s-.2,0-.4,0c-.1,0-.3.1-.4.2,0,0-.1.1-.2.2-.2,0-.4-.1-.5-.1s-.5,0-.7.2c-.2.2-.4.4-.5.7,0,0,0,.2,0,.3,0,.2,0,.4.1.6,0,.2.2.3.3.5Z"/>
  <path class="cls-1" d="M17.8,63.6c.1.1.3.2.4.3,0,0,0,0,.1,0,0,0,0,0,0,0v.4h3.5v-.4c0,0,.2-.2.4-.3.2-.2.5-.4.7-.7.1-.1.2-.3.3-.5,0-.2.1-.4.1-.6s0-.2,0-.3c0-.3-.2-.6-.5-.7-.2-.2-.5-.2-.7-.2s-.4,0-.5.1c0,0-.1-.1-.2-.2-.1,0-.2-.2-.4-.2-.1,0-.2,0-.4,0s-.3,0-.4,0c0,0,0,0,0,0v-.8h.5v-.4h-.5v-.6h-.4v.6h-.5v.4h.5v.8s0,0,0,0c-.1,0-.3,0-.4,0s-.2,0-.4,0c-.1,0-.3.1-.4.2,0,0-.1.1-.2.2-.2,0-.4-.1-.5-.1s-.5,0-.7.2c-.2.2-.4.4-.5.7,0,0,0,.2,0,.3,0,.3.1.6.3.8.2.3.5.6.8.8Z"/>
  <path class="cls-1" d="M15,81.4c-.8.4-.2,2.1,0,2.4.2.4.2,1.7.7,1.6.5-.1,1-1.9,1-1.9,0,0,5.9-3,6.5-3.5.6-.5.1-2.9.1-2.9,0,0-7.5,4-8.4,4.4Z"/>
  <path class="cls-1" d="M21.9,71.2c.2,0,.3,0,.4,0v-2.8h-4.6v3.4c1.3-.4,2.7-.7,4.2-.7Z"/>
  <path class="cls-1" d="M21.8,75.6c-1.8,0-3.1.4-4,.9v2.9c1.5-.8,3.2-1.7,4.6-2.4v-1.3c-.2,0-.4,0-.6,0Z"/>
  <rect class="cls-1" x="17" y="65.1" width="6.1" height="2.2"/>
</svg>