<?xml version="1.0" encoding="UTF-8"?>
<svg id="Layer_1" data-name="Layer 1" xmlns="http://www.w3.org/2000/svg" version="1.1" viewBox="0 0 141.7 141.7">
  <defs>
    <style>
      .cls-1 {
        fill: #000;
        stroke-width: 0px;
      }
    </style>
  </defs>
  <path class="cls-1" d="M70.9,2.8C33.3,2.8,2.8,33.3,2.8,70.9s30.5,68,68,68,68-30.5,68-68S108.4,2.8,70.9,2.8M28.4,118c-1.1-1-2.1-2-3.1-3l23.3-17.2v-4.6h-8.8l-20.3,14.9c-2.4-3.3-4.5-6.9-6.2-10.6l5.9-4.3h-7.7c-1.1-2.9-2-5.9-2.6-8.9h48.7v48.7c-3-.7-6-1.5-8.9-2.6v-27.2l-20.2,14.9M84.2,50.5V8.8c3.1.7,6,1.5,8.9,2.6v27.2l20.2-14.9c1.1,1,2.1,2,3.1,3l-23.3,17.2v4.6h8.8l20.3-14.9c2.4,3.3,4.5,6.9,6.2,10.6l-5.9,4.3h7.7c1.1,2.9,2,5.9,2.6,8.9h-48.7v-6.9M28.3,23.8l20.2,14.9V11.4c2.9-1.1,5.9-2,8.9-2.6v48.7H8.8c.7-3.1,1.5-6,2.6-8.9h7.7l-5.9-4.3c.6-1.2,1.2-2.4,1.8-3.6l10.7,7.9h15.1s-21-15.5-21-15.5c2.5-3.4,5.3-6.5,8.5-9.3M113.4,118l-20.2-14.9v27.2c-2.9,1.1-5.9,2-8.9,2.6v-48.7h48.7c-.7,3-1.5,6-2.6,8.9h-7.7l5.9,4.3c-.6,1.2-1.2,2.4-1.8,3.6l-10.7-7.9h-15.1s21,15.5,21,15.5c-2.5,3.4-5.3,6.5-8.5,9.3"/>
</svg>